<?xml version="1.0" encoding="utf-8"?>
<!-- Generator: Adobe Illustrator 15.0.0, SVG Export Plug-In . SVG Version: 6.00 Build 0)  -->
<!DOCTYPE svg PUBLIC "-//W3C//DTD SVG 1.1//EN" "http://www.w3.org/Graphics/SVG/1.1/DTD/svg11.dtd">
<svg version="1.1"  xmlns="http://www.w3.org/2000/svg" xmlns:xlink="http://www.w3.org/1999/xlink" x="0px" y="0px"
	 width="48px" height="48px" viewBox="0 0 48 48" enable-background="new 0 0 48 48" xml:space="preserve">
<g>
	<path fill="#FFCC80" d="M31.081,18H16.04v24h15.041c3.247,0,5.878-2.686,5.878-5.997V24C36.959,20.685,34.328,18,31.081,18z"/>
	<path fill="#FFCC80" d="M20.04,21c0,1.657-1.343,3-3,3h-12c-1.657,0-3-1.343-3-3l0,0c0-1.657,1.343-3,3-3h12
		C18.697,18,20.04,19.343,20.04,21L20.04,21z"/>
	<path fill="#FFCC80" d="M23.04,27c0,1.657-1.343,3-3,3h-6c-1.657,0-3-1.343-3-3l0,0c0-1.657,1.343-3,3-3h6
		C21.697,24,23.04,25.343,23.04,27L23.04,27z"/>
	<path fill="#FFCC80" d="M24.04,33c0,1.657-1.343,3-3,3h-6c-1.657,0-3-1.343-3-3l0,0c0-1.657,1.343-3,3-3h6
		C22.697,30,24.04,31.343,24.04,33L24.04,33z"/>
	<path fill="#FFCC80" d="M25.04,39c0,1.657-1.343,3-3,3h-6c-1.657,0-3-1.343-3-3l0,0c0-1.657,1.343-3,3-3h6
		C23.697,36,25.04,37.343,25.04,39L25.04,39z"/>
	<path fill="#FFCC80" d="M34.633,19.254l-8.193,4.266l-2.625-4.763C22.453,16.295,22,13.514,22,10.685V9.294C22,8,23.186,6,24.968,6
		h0.675c0.582,0,1.092,0.402,1.231,0.981l0.724,2.954c0.334,1.354,0.99,2.601,1.916,3.631L34.633,19.254z"/>
</g>
<g>
	<path fill="#F2A25A" d="M13.04,24h4c0.552,0,1,0.447,1,1s-0.448,1-1,1L13.04,24z"/>
	<path fill="#F2A25A" d="M14.04,30h4c0.552,0,1,0.447,1,1s-0.448,1-1,1L14.04,30z"/>
	<path fill="#F2A25A" d="M15.04,36h4c0.552,0,1,0.447,1,1s-0.448,1-1,1L15.04,36z"/>
</g>
<rect x="36" y="19" fill="#009688" width="10" height="22"/>
<circle fill="#B2DFDB" cx="41" cy="36" r="2"/>
</svg>
