<?xml version="1.0" encoding="utf-8"?>
<!-- Generator: Adobe Illustrator 15.0.0, SVG Export Plug-In . SVG Version: 6.00 Build 0)  -->
<!DOCTYPE svg PUBLIC "-//W3C//DTD SVG 1.1//EN" "http://www.w3.org/Graphics/SVG/1.1/DTD/svg11.dtd">
<svg version="1.1"  xmlns="http://www.w3.org/2000/svg" xmlns:xlink="http://www.w3.org/1999/xlink" x="0px" y="0px"
	 width="48px" height="48px" viewBox="0 0 48 48" enable-background="new 0 0 48 48" xml:space="preserve">
<g>
	<path fill="#FFCC80" d="M16.959,18H32v24H16.959c-3.247,0-5.878-2.686-5.878-5.997V24C11.081,20.685,13.712,18,16.959,18z"/>
	<path fill="#FFCC80" d="M28,21c0,1.657,1.343,3,3,3h12c1.657,0,3-1.343,3-3l0,0c0-1.657-1.343-3-3-3H31C29.343,18,28,19.343,28,21
		L28,21z"/>
	<path fill="#FFCC80" d="M25,27c0,1.657,1.343,3,3,3h6c1.657,0,3-1.343,3-3l0,0c0-1.657-1.343-3-3-3h-6C26.343,24,25,25.343,25,27
		L25,27z"/>
	<path fill="#FFCC80" d="M24,33c0,1.657,1.343,3,3,3h6c1.657,0,3-1.343,3-3l0,0c0-1.657-1.343-3-3-3h-6C25.343,30,24,31.343,24,33
		L24,33z"/>
	<path fill="#FFCC80" d="M23,39c0,1.657,1.343,3,3,3h6c1.657,0,3-1.343,3-3l0,0c0-1.657-1.343-3-3-3h-6C24.343,36,23,37.343,23,39
		L23,39z"/>
	<path fill="#FFCC80" d="M18.526,13.566c0.926-1.03,1.582-2.277,1.916-3.631l0.724-2.954C21.306,6.402,21.815,6,22.397,6h0.675
		c1.782,0,2.968,2,2.968,3.294v1.391c0,2.829-0.453,5.61-1.814,8.072l-2.625,4.763l-8.193-4.266L18.526,13.566z"/>
</g>
<g>
	<path fill="#F2A25A" d="M35,24h-4c-0.552,0-1,0.447-1,1s0.448,1,1,1L35,24z"/>
	<path fill="#F2A25A" d="M34,30h-4c-0.552,0-1,0.447-1,1s0.448,1,1,1L34,30z"/>
	<path fill="#F2A25A" d="M33,36h-4c-0.552,0-1,0.447-1,1s0.448,1,1,1L33,36z"/>
</g>
<rect x="2.04" y="19" fill="#009688" width="10" height="22"/>
<circle fill="#B2DFDB" cx="7.04" cy="36" r="2"/>
</svg>
